<mxfile host="app.diagrams.net" modified="2024-05-24T23:43:52.890Z" agent="Mozilla/5.0 (Windows NT 10.0; Win64; x64) AppleWebKit/537.36 (KHTML, like Gecko) Chrome/124.0.0.0 Safari/537.36" etag="NgvFvti_z9o9jE1_DlIp" version="24.4.8" type="github">
  <diagram name="Página-1" id="nO_YHnesKga44wesAzok">
    <mxGraphModel dx="2550" dy="1328" grid="1" gridSize="9" guides="1" tooltips="1" connect="1" arrows="1" fold="1" page="0" pageScale="1" pageWidth="400" pageHeight="1000" math="0" shadow="0">
      <root>
        <mxCell id="0" />
        <mxCell id="1" parent="0" />
        <mxCell id="qBBfsmnU72ld4QRNaD1H-1" value="" style="rounded=0;whiteSpace=wrap;html=1;fillColor=#d5e8d4;strokeColor=#82b366;" vertex="1" parent="1">
          <mxGeometry x="220" y="30" width="360" height="130" as="geometry" />
        </mxCell>
        <mxCell id="qBBfsmnU72ld4QRNaD1H-2" value="&lt;font style=&quot;font-size: 18px;&quot;&gt;&lt;b&gt;SPOTIFY&lt;/b&gt;&lt;/font&gt;" style="text;html=1;align=center;verticalAlign=middle;whiteSpace=wrap;rounded=0;" vertex="1" parent="1">
          <mxGeometry x="290" y="70" width="210" height="60" as="geometry" />
        </mxCell>
        <mxCell id="qBBfsmnU72ld4QRNaD1H-3" value="" style="endArrow=classic;html=1;rounded=0;" edge="1" parent="1">
          <mxGeometry width="50" height="50" relative="1" as="geometry">
            <mxPoint x="395" y="400" as="sourcePoint" />
            <mxPoint x="394.5" y="160" as="targetPoint" />
          </mxGeometry>
        </mxCell>
        <mxCell id="qBBfsmnU72ld4QRNaD1H-6" value="" style="shape=process;whiteSpace=wrap;html=1;backgroundOutline=1;fillColor=#fad9d5;strokeColor=#ae4132;" vertex="1" parent="1">
          <mxGeometry x="240" y="400" width="330" height="90" as="geometry" />
        </mxCell>
        <mxCell id="qBBfsmnU72ld4QRNaD1H-7" value="User Database" style="text;html=1;align=center;verticalAlign=middle;whiteSpace=wrap;rounded=0;fontSize=16;fontStyle=1" vertex="1" parent="1">
          <mxGeometry x="290" y="430" width="60" height="30" as="geometry" />
        </mxCell>
        <mxCell id="qBBfsmnU72ld4QRNaD1H-9" value="" style="shape=datastore;whiteSpace=wrap;html=1;fillColor=#dae8fc;gradientColor=#7ea6e0;strokeColor=#6c8ebf;" vertex="1" parent="1">
          <mxGeometry x="415" y="407.5" width="85" height="75" as="geometry" />
        </mxCell>
        <mxCell id="qBBfsmnU72ld4QRNaD1H-10" value="" style="shape=actor;whiteSpace=wrap;html=1;" vertex="1" parent="1">
          <mxGeometry x="425" y="260" width="40" height="60" as="geometry" />
        </mxCell>
        <mxCell id="qBBfsmnU72ld4QRNaD1H-11" value="User Premium" style="text;html=1;align=center;verticalAlign=middle;whiteSpace=wrap;rounded=0;strokeWidth=11;fontSize=16;fontStyle=1" vertex="1" parent="1">
          <mxGeometry x="415" y="330" width="60" height="30" as="geometry" />
        </mxCell>
        <mxCell id="qBBfsmnU72ld4QRNaD1H-12" value="" style="shape=actor;whiteSpace=wrap;html=1;" vertex="1" parent="1">
          <mxGeometry x="150" y="610" width="40" height="60" as="geometry" />
        </mxCell>
        <mxCell id="qBBfsmnU72ld4QRNaD1H-13" value="" style="shape=actor;whiteSpace=wrap;html=1;" vertex="1" parent="1">
          <mxGeometry x="230" y="610" width="40" height="60" as="geometry" />
        </mxCell>
        <mxCell id="qBBfsmnU72ld4QRNaD1H-14" value="" style="shape=actor;whiteSpace=wrap;html=1;" vertex="1" parent="1">
          <mxGeometry x="330" y="610" width="40" height="60" as="geometry" />
        </mxCell>
        <mxCell id="qBBfsmnU72ld4QRNaD1H-15" value="" style="shape=actor;whiteSpace=wrap;html=1;" vertex="1" parent="1">
          <mxGeometry x="394" y="610" width="40" height="60" as="geometry" />
        </mxCell>
        <mxCell id="qBBfsmnU72ld4QRNaD1H-16" value="" style="shape=actor;whiteSpace=wrap;html=1;" vertex="1" parent="1">
          <mxGeometry x="475" y="610" width="40" height="60" as="geometry" />
        </mxCell>
        <mxCell id="qBBfsmnU72ld4QRNaD1H-17" value="" style="shape=actor;whiteSpace=wrap;html=1;" vertex="1" parent="1">
          <mxGeometry x="550" y="610" width="40" height="60" as="geometry" />
        </mxCell>
        <mxCell id="qBBfsmnU72ld4QRNaD1H-19" value="" style="endArrow=classic;html=1;rounded=0;entryX=0.207;entryY=1.033;entryDx=0;entryDy=0;entryPerimeter=0;" edge="1" parent="1" target="qBBfsmnU72ld4QRNaD1H-6">
          <mxGeometry width="50" height="50" relative="1" as="geometry">
            <mxPoint x="180" y="620" as="sourcePoint" />
            <mxPoint x="230" y="570" as="targetPoint" />
            <Array as="points">
              <mxPoint x="190" y="610" />
            </Array>
          </mxGeometry>
        </mxCell>
        <mxCell id="qBBfsmnU72ld4QRNaD1H-20" value="" style="endArrow=classic;html=1;rounded=0;entryX=0.341;entryY=1.024;entryDx=0;entryDy=0;entryPerimeter=0;" edge="1" parent="1" target="qBBfsmnU72ld4QRNaD1H-6">
          <mxGeometry width="50" height="50" relative="1" as="geometry">
            <mxPoint x="250" y="610" as="sourcePoint" />
            <mxPoint x="361" y="500" as="targetPoint" />
            <Array as="points" />
          </mxGeometry>
        </mxCell>
        <mxCell id="qBBfsmnU72ld4QRNaD1H-21" value="" style="endArrow=classic;html=1;rounded=0;entryX=0.75;entryY=1;entryDx=0;entryDy=0;" edge="1" parent="1" target="qBBfsmnU72ld4QRNaD1H-6">
          <mxGeometry width="50" height="50" relative="1" as="geometry">
            <mxPoint x="570" y="610" as="sourcePoint" />
            <mxPoint x="681" y="500" as="targetPoint" />
            <Array as="points" />
          </mxGeometry>
        </mxCell>
        <mxCell id="qBBfsmnU72ld4QRNaD1H-22" value="" style="endArrow=classic;html=1;rounded=0;entryX=0.816;entryY=1.069;entryDx=0;entryDy=0;entryPerimeter=0;exitX=0.5;exitY=0;exitDx=0;exitDy=0;" edge="1" parent="1" source="qBBfsmnU72ld4QRNaD1H-16">
          <mxGeometry width="50" height="50" relative="1" as="geometry">
            <mxPoint x="490" y="604" as="sourcePoint" />
            <mxPoint x="439" y="490" as="targetPoint" />
            <Array as="points" />
          </mxGeometry>
        </mxCell>
        <mxCell id="qBBfsmnU72ld4QRNaD1H-23" value="" style="endArrow=classic;html=1;rounded=0;entryX=0.421;entryY=1.024;entryDx=0;entryDy=0;entryPerimeter=0;" edge="1" parent="1" target="qBBfsmnU72ld4QRNaD1H-6">
          <mxGeometry width="50" height="50" relative="1" as="geometry">
            <mxPoint x="350" y="610" as="sourcePoint" />
            <mxPoint x="400" y="560" as="targetPoint" />
            <Array as="points" />
          </mxGeometry>
        </mxCell>
        <mxCell id="qBBfsmnU72ld4QRNaD1H-24" value="" style="endArrow=classic;html=1;rounded=0;entryX=0.5;entryY=1;entryDx=0;entryDy=0;" edge="1" parent="1" target="qBBfsmnU72ld4QRNaD1H-6">
          <mxGeometry width="50" height="50" relative="1" as="geometry">
            <mxPoint x="415" y="610" as="sourcePoint" />
            <mxPoint x="444" y="492" as="targetPoint" />
            <Array as="points" />
          </mxGeometry>
        </mxCell>
        <mxCell id="qBBfsmnU72ld4QRNaD1H-25" value="User 1" style="text;html=1;align=center;verticalAlign=middle;whiteSpace=wrap;rounded=0;fontSize=15;fontStyle=1" vertex="1" parent="1">
          <mxGeometry x="140" y="670" width="60" height="30" as="geometry" />
        </mxCell>
        <mxCell id="qBBfsmnU72ld4QRNaD1H-26" value="User 2" style="text;html=1;align=center;verticalAlign=middle;whiteSpace=wrap;rounded=0;fontSize=15;fontStyle=1" vertex="1" parent="1">
          <mxGeometry x="220" y="670" width="60" height="30" as="geometry" />
        </mxCell>
        <mxCell id="qBBfsmnU72ld4QRNaD1H-27" value="User 3" style="text;html=1;align=center;verticalAlign=middle;whiteSpace=wrap;rounded=0;fontSize=15;fontStyle=1" vertex="1" parent="1">
          <mxGeometry x="320" y="670" width="60" height="30" as="geometry" />
        </mxCell>
        <mxCell id="qBBfsmnU72ld4QRNaD1H-28" value="User 4" style="text;html=1;align=center;verticalAlign=middle;whiteSpace=wrap;rounded=0;fontSize=15;fontStyle=1" vertex="1" parent="1">
          <mxGeometry x="384" y="670" width="60" height="30" as="geometry" />
        </mxCell>
        <mxCell id="qBBfsmnU72ld4QRNaD1H-29" value="User 4" style="text;html=1;align=center;verticalAlign=middle;whiteSpace=wrap;rounded=0;fontSize=15;fontStyle=1" vertex="1" parent="1">
          <mxGeometry x="465" y="670" width="60" height="30" as="geometry" />
        </mxCell>
        <mxCell id="qBBfsmnU72ld4QRNaD1H-30" value="User 5" style="text;html=1;align=center;verticalAlign=middle;whiteSpace=wrap;rounded=0;fontSize=15;fontStyle=1" vertex="1" parent="1">
          <mxGeometry x="540" y="670" width="60" height="30" as="geometry" />
        </mxCell>
        <mxCell id="qBBfsmnU72ld4QRNaD1H-32" value="Fluxo de Autenticação" style="swimlane;whiteSpace=wrap;html=1;" vertex="1" parent="1">
          <mxGeometry x="144" y="225" width="459" height="486" as="geometry" />
        </mxCell>
        <mxCell id="qBBfsmnU72ld4QRNaD1H-33" value="" style="shape=actor;whiteSpace=wrap;html=1;" vertex="1" parent="1">
          <mxGeometry x="-765" y="81" width="243" height="342" as="geometry" />
        </mxCell>
        <mxCell id="qBBfsmnU72ld4QRNaD1H-34" value="User" style="text;strokeColor=none;fillColor=none;html=1;fontSize=24;fontStyle=1;verticalAlign=middle;align=center;" vertex="1" parent="1">
          <mxGeometry x="-693.5" y="430" width="100" height="40" as="geometry" />
        </mxCell>
        <mxCell id="qBBfsmnU72ld4QRNaD1H-35" value="" style="endArrow=classic;html=1;rounded=0;fillColor=#dae8fc;gradientColor=#7ea6e0;strokeColor=#6c8ebf;" edge="1" parent="1">
          <mxGeometry width="50" height="50" relative="1" as="geometry">
            <mxPoint x="-576" y="149.33" as="sourcePoint" />
            <mxPoint x="-256" y="149.33" as="targetPoint" />
          </mxGeometry>
        </mxCell>
        <mxCell id="qBBfsmnU72ld4QRNaD1H-36" value="Obter Detalhes do Album Por Código" style="text;strokeColor=none;fillColor=none;html=1;fontSize=16;fontStyle=0;verticalAlign=middle;align=center;" vertex="1" parent="1">
          <mxGeometry x="-450" y="108.31" width="100" height="40" as="geometry" />
        </mxCell>
        <mxCell id="qBBfsmnU72ld4QRNaD1H-45" style="edgeStyle=orthogonalEdgeStyle;rounded=0;orthogonalLoop=1;jettySize=auto;html=1;fillColor=#dae8fc;gradientColor=#7ea6e0;strokeColor=#6c8ebf;exitX=0.38;exitY=-0.008;exitDx=0;exitDy=0;exitPerimeter=0;" edge="1" parent="1" source="qBBfsmnU72ld4QRNaD1H-39">
          <mxGeometry relative="1" as="geometry">
            <mxPoint x="216" y="151.80999999999995" as="targetPoint" />
            <Array as="points" />
          </mxGeometry>
        </mxCell>
        <mxCell id="qBBfsmnU72ld4QRNaD1H-39" value="" style="shape=process;whiteSpace=wrap;html=1;backgroundOutline=1;rotation=90;" vertex="1" parent="1">
          <mxGeometry x="-387.57" y="108.31" width="529.87" height="216.38" as="geometry" />
        </mxCell>
        <mxCell id="qBBfsmnU72ld4QRNaD1H-41" value="&lt;font style=&quot;font-size: 24px;&quot;&gt;&lt;b&gt;Security Gateway&lt;/b&gt;&lt;/font&gt;" style="text;html=1;align=center;verticalAlign=middle;whiteSpace=wrap;rounded=0;" vertex="1" parent="1">
          <mxGeometry x="-152.64" y="171" width="60" height="30" as="geometry" />
        </mxCell>
        <mxCell id="qBBfsmnU72ld4QRNaD1H-42" value="Authorization" style="text;html=1;align=center;verticalAlign=middle;whiteSpace=wrap;rounded=0;fontStyle=1;fontSize=14;" vertex="1" parent="1">
          <mxGeometry x="-468" y="151" width="60" height="30" as="geometry" />
        </mxCell>
        <mxCell id="qBBfsmnU72ld4QRNaD1H-51" value="" style="endArrow=none;html=1;rounded=0;fillColor=#dae8fc;gradientColor=#7ea6e0;strokeColor=#6c8ebf;" edge="1" parent="1">
          <mxGeometry width="50" height="50" relative="1" as="geometry">
            <mxPoint x="394" y="30" as="sourcePoint" />
            <mxPoint x="394" y="-36" as="targetPoint" />
          </mxGeometry>
        </mxCell>
        <mxCell id="qBBfsmnU72ld4QRNaD1H-54" value="" style="edgeStyle=elbowEdgeStyle;elbow=vertical;endArrow=classic;html=1;curved=0;rounded=0;endSize=8;startSize=8;fillColor=#dae8fc;gradientColor=#7ea6e0;strokeColor=#6c8ebf;" edge="1" parent="1">
          <mxGeometry width="50" height="50" relative="1" as="geometry">
            <mxPoint x="394" y="-40" as="sourcePoint" />
            <mxPoint x="-648" y="72" as="targetPoint" />
            <Array as="points">
              <mxPoint x="799" y="-72" />
            </Array>
          </mxGeometry>
        </mxCell>
        <mxCell id="qBBfsmnU72ld4QRNaD1H-56" value="Detalhes do Album" style="text;strokeColor=none;fillColor=none;html=1;fontSize=16;fontStyle=0;verticalAlign=middle;align=center;" vertex="1" parent="1">
          <mxGeometry x="-622" y="-72" width="100" height="40" as="geometry" />
        </mxCell>
        <mxCell id="qBBfsmnU72ld4QRNaD1H-62" value="1.1" style="text;strokeColor=none;fillColor=none;html=1;fontSize=16;fontStyle=0;verticalAlign=middle;align=center;" vertex="1" parent="1">
          <mxGeometry x="-612" y="111" width="100" height="40" as="geometry" />
        </mxCell>
        <mxCell id="qBBfsmnU72ld4QRNaD1H-63" value="1.2" style="text;strokeColor=none;fillColor=none;html=1;fontSize=16;fontStyle=0;verticalAlign=middle;align=center;" vertex="1" parent="1">
          <mxGeometry x="-9" y="120" width="100" height="40" as="geometry" />
        </mxCell>
        <mxCell id="qBBfsmnU72ld4QRNaD1H-64" value="1.3" style="text;strokeColor=none;fillColor=none;html=1;fontSize=16;fontStyle=0;verticalAlign=middle;align=center;" vertex="1" parent="1">
          <mxGeometry x="-657" y="-108" width="100" height="40" as="geometry" />
        </mxCell>
      </root>
    </mxGraphModel>
  </diagram>
</mxfile>
